PathFileType	4	(X/Y/Z)	Patient4_TMGait_0pt6_02_left_33.trc.trc
DataRate	CameraRate	NumFrames	NumMarkers	Units	OrigDataRate	OrigDataStartFrame	OrigNumFrames
82.352941176470	82.352941176470	5	33	mm	82.352941176470	53	       141
Frame#	Time	Sacral			L.Shoulder			Chest			R.Shoulder			Neck			R.ASIS			L.ASIS			R.Thigh.Superior			R.Thigh.Lateral			R.Thigh.Inferior			R.Patella			L.Thigh.Superior			L.Thigh.Lateral			L.Thigh.Inferior			L.Patella			L.Shank.Superior			L.Shank.Lateral			L.Shank.Inferior			R.Shank.Superior			R.Shank.Lateral			R.Shank.Inferior			R.Heel			R.Midfoot.Superior			R.Midfoot.Lateral			R.Toe			L.Heel			L.Midfoot.Lateral			L.Midfoot.Superior			L.Toe			L.Elbow			L.Wrist			R.Elbow			R.Wrist			
		X1	Y1	Z1	X2	Y2	Z2	X3	Y3	Z3	X4	Y4	Z4	X5	Y5	Z5	X6	Y6	Z6	X7	Y7	Z7	X8	Y8	Z8	X9	Y9	Z9	X10	Y10	Z10	X11	Y11	Z11	X12	Y12	Z12	X13	Y13	Z13	X14	Y14	Z14	X15	Y15	Z15	X16	Y16	Z16	X17	Y17	Z17	X18	Y18	Z18	X19	Y19	Z19	X20	Y20	Z20	X21	Y21	Z21	X22	Y22	Z22	X23	Y23	Z23	X24	Y24	Z24	X25	Y25	Z25	X26	Y26	Z26	X27	Y27	Z27	X28	Y28	Z28	X29	Y29	Z29	X30	Y30	Z30	X31	Y31	Z31	X32	Y32	Z32	X33	Y33	Z33	

53	40.921428571429	785.942849426973	1017.315116126014	415.934805379715	989.785606002611	1437.393436651339	236.911712296625	1087.384108688050	1357.633626328405	395.658727221699	1010.074259020058	1436.470539508330	569.690701785174	993.301450744609	1496.367135524570	389.059701485170	1009.359539899500	948.560018685329	534.826499634994	998.514296116039	958.700768761722	260.322075999896	1092.837085466327	781.349666539582	507.265005764424	1056.011445269632	662.105199528774	583.379289810483	1145.824039787253	622.869150548999	503.517599129964	1166.510224863535	508.918084330082	527.137667990955	1042.191299150137	748.505587338953	293.557533781529	947.788079972221	635.380547456024	239.714789644795	1028.972722310542	555.708579250940	304.718107831679	1026.587914036596	485.776118241175	316.775882939364	995.567310595546	415.133904390547	309.601960481082	899.934268959813	304.248446661772	263.480033602633	946.499093512757	192.266615655042	335.507254195704	1088.496225764441	435.240133525772	537.227492970562	966.258261403400	400.138160649562	598.386688760447	949.983834083596	290.112824893740	553.330326055159	750.343336981990	238.627887832616	526.645159341625	911.610571697041	164.149342861528	566.769048856640	803.018408828732	173.361741700811	599.727004994670	966.263772737887	46.805740957640	593.740969136636	812.648219455887	39.617180799324	384.058143238610	883.014475676593	35.963032285009	300.463496767633	967.989515981350	96.199871032787	323.409833326893	1094.917039634971	40.510823668914	288.696748825445	969.444884555676	1090.326978944085	100.897736646270	1117.403778850026	873.864664344511	101.003266383091	961.577172662508	1085.766582858097	678.977023317522	1069.052104650061	848.656462907534	657.747927578200	
54	40.933571428571	784.790191032833	1017.782001004195	414.608540850045	990.766275766205	1437.782103965073	236.499734796418	1086.873035298948	1357.857246899825	396.047142240413	1008.278640253128	1436.775697805805	569.522049522214	992.965510588624	1496.707877271677	388.676770891576	1007.684559351737	949.549056641373	534.853483319792	997.845937382784	958.691733842370	260.231918272358	1093.425139740274	785.194887889235	506.916541162240	1059.193616482740	665.416061395679	583.284024038584	1149.370256087670	627.714345702675	503.077343378340	1172.697888156537	514.526077574340	526.877894110545	1039.310250602612	747.558590694212	294.054715595748	943.984446325987	635.457280553652	239.350553842011	1023.729628265035	554.919707945322	304.864403389203	1020.440107500023	485.143478655984	316.945216138621	989.441543275332	414.817923550482	309.568581559638	893.616487980715	304.205162028659	263.242380595402	939.440240990282	192.144670247412	335.513567079365	1096.976255811076	438.851628383188	537.115676043316	976.100507006985	399.421742578299	598.176554458495	963.857245062969	288.790290372846	553.169205672827	766.039051604703	229.325957724182	526.589167439994	930.343083319031	161.838724244370	566.508950253977	821.512057337382	166.429573978752	599.638161714825	989.999878051977	47.188082116402	593.524602080184	805.261792918910	39.661556245040	383.986532630147	875.681742722266	35.955553376077	300.414131636073	960.658809718936	96.182422159495	323.369708811074	1087.589983700049	40.473933063206	288.678561382140	977.115701199386	1091.625469904813	98.153292610380	1134.069097241458	881.634568300157	98.810538489031	953.428282965551	1087.332102984250	679.510956247898	1043.014813545404	841.680828953438	664.329020483687	
55	40.945714285714	783.697203314966	1018.192437736592	413.427319745279	991.835372451177	1438.108778146557	236.230283518310	1086.441105669356	1358.006709836130	396.570128835480	1006.565844548198	1437.014504691636	569.477273954108	992.667676127114	1496.981507577906	388.434724022361	1006.056740678046	950.392987497943	534.976495731572	997.222374563472	958.634908190388	260.286283618013	1093.766269879115	788.682132451309	506.718235724313	1061.866456769455	668.400571243735	583.250227332670	1152.260986701970	632.070501534923	502.694717925346	1178.075988670501	519.869605228741	526.654922087551	1036.384885541969	746.599256289658	294.714720621467	940.142730237728	635.525398781308	239.024822776802	1018.389003864846	554.123362067158	305.042666104484	1014.183335732448	484.524276443357	317.104409969614	983.246973340356	414.509121684639	309.537755115024	887.253048352244	304.152731829534	263.005453907689	932.348532403856	192.023164738819	335.515557846571	1105.015244819981	442.153953129665	537.072966216895	985.988805766387	397.890325399166	598.244247751739	978.196108190998	286.778390713603	553.223842269172	782.751908490664	218.648472504088	527.084055277713	950.111777811964	158.817387475836	566.441470616336	841.289940742148	158.413697450963	599.992524272094	1015.145581575526	47.228052066630	593.341022095085	797.888419680147	39.705782922991	383.914383905497	868.351247572025	35.944289706904	300.367751152570	953.329548557595	96.162835308540	323.331394267157	1080.266125321899	40.435915570281	288.667247696869	984.411952068312	1093.049849364930	95.653397119043	1150.277902741846	890.068051243461	97.029193156510	945.065035785390	1089.078513331118	680.096371959931	1017.331395538648	836.804277540454	670.481221314271	
56	40.957857142857	782.672609642141	1018.529531559275	412.399881690391	992.962515746171	1438.348576862042	236.108357247818	1086.085435457209	1358.064783963228	397.219381747342	1004.949281107909	1437.167420243506	569.549269232503	992.416423868398	1497.168876115891	388.340660867452	1004.506421200286	951.068313675917	535.190762465457	996.673678978687	958.553214833295	260.467499240655	1093.845366688750	791.727022712126	506.627171841088	1063.998912030579	670.974029012591	583.262022915303	1154.466162754560	635.832720819431	502.356784412720	1182.596789562701	524.838997543329	526.451934785761	1033.464672220699	745.619840796135	295.462353744298	936.267456183912	635.573823625455	238.737266478323	1012.982772794204	553.311321634750	305.221825474047	1007.860379476356	483.917386513299	317.237094217453	977.014093873059	414.200481287166	309.502057877587	880.857907465956	304.093284503138	262.770455482066	925.244568155205	191.898411601407	335.508855929898	1112.546848427387	445.100980436706	537.083523190773	995.911052675206	395.604049233959	598.592942185810	992.917645808679	284.201035664727	553.484620670716	800.495750364693	206.874242275292	528.100054868914	970.769622234650	155.295086420124	566.568838483256	862.276008641215	149.613046830481	600.779641513665	1041.424377640934	47.152272336991	593.223410516262	790.531745107361	39.748991878267	383.840505489754	861.022391011155	35.928932734549	300.324294616446	946.003194741841	96.141472095782	323.293512192817	1072.944271473303	40.396643594833	288.660870523724	991.328188629967	1094.539550775027	93.402899452024	1165.969680306705	899.108936522343	95.642459524246	936.412616151909	1091.020080446966	680.738279911569	992.314147893850	833.922859075442	676.079959414087	
57	40.970000000000	781.729300564111	1018.781507220786	411.534392748338	994.115193558233	1438.482974449598	236.135374466809	1085.801877424427	1358.021445428920	397.982804769515	1003.442151995765	1437.224845576458	569.725414540500	992.220299101506	1497.256725810528	388.395999183273	1003.066053759911	951.559608784209	535.492837406708	996.227412283882	958.470343339470	260.755119068941	1093.648651500163	794.251059262699	506.611557380641	1065.552149430914	673.060852938242	583.313492266241	1155.959758177380	638.909108908013	502.066816682298	1186.221483801153	529.334784776115	526.264499082318	1030.590149870882	744.611149756240	296.227945065590	932.359187360659	635.597146092134	238.488616529620	1007.536776115850	552.478335786035	305.376093632573	1001.505523619788	483.322839405451	317.331430151627	970.764540101511	413.888628433164	309.455908509730	874.438365899063	304.031181169114	262.539608853244	918.144470424318	191.769326670166	335.489733843637	1119.504360170612	447.657220828137	537.137838357302	1005.838332596652	392.637512926342	599.214043343070	1007.926293864111	281.191497222468	553.929178704864	819.261819214084	194.273787835033	529.564175188576	992.161985982408	151.495190874638	566.878881159475	884.370907184316	140.320330233878	601.949152859421	1068.566423659139	47.218042547111	593.196546332219	783.192462149083	39.791412742427	383.764215053921	853.694079511703	35.909375624266	300.283945895805	938.680435068269	96.118577433955	323.254417934729	1065.622502816131	40.355921997916	288.657806288202	997.872432948468	1096.039426353322	91.408627827754	1181.085627834102	908.695077604888	94.634343937679	927.435928136082	1093.186531037771	681.455214452090	968.212013695670	832.865040976754	681.051233455170	
